<?xml version="1.0" standalone="no"?><!DOCTYPE svg PUBLIC "-//W3C//DTD SVG 1.1//EN" "http://www.w3.org/Graphics/SVG/1.1/DTD/svg11.dtd"><svg t="1548229292163" class="icon" style="" viewBox="0 0 1139 1024" version="1.1" xmlns="http://www.w3.org/2000/svg" p-id="4095" xmlns:xlink="http://www.w3.org/1999/xlink" width="333.69140625" height="300"><defs><style type="text/css"></style></defs><path d="M801.50069 0c-184.941525 0-335.017024 42.445596-335.017024 93.986677V250.88379a25.77054 25.77054 0 0 0 0 8.337528c16.675056 45.477424 159.170984 81.101406 333.50111 81.101406s319.099926-37.139896 337.290895-80.343449a25.77054 25.77054 0 0 0 0-8.337528V93.986677c0-51.541081-151.591414-93.986677-335.774981-93.986677z m275.138416 106.11399a257.705403 257.705403 0 0 1-60.636566 22.738712 890.599556 890.599556 0 0 1-214.50185 22.738712 890.599556 890.599556 0 0 1-214.501851-22.738712 259.221318 259.221318 0 0 1-60.636565-22.738712 37.897853 37.897853 0 0 1-15.159141-12.127313 39.413768 39.413768 0 0 1 15.159141-12.127314 259.221318 259.221318 0 0 1 60.636565-22.738712 890.599556 890.599556 0 0 1 214.501851-23.496669 891.357513 891.357513 0 0 1 214.50185 23.496669 257.705403 257.705403 0 0 1 60.636566 22.738712 38.655811 38.655811 0 0 1 15.159141 12.127314 37.897853 37.897853 0 0 1-14.401184 12.127313z m-122.031088 252.399704a1088.426351 1088.426351 0 0 1-151.591414 10.611399 1094.490007 1094.490007 0 0 1-151.591414-10.611399c-108.387861-15.159141-182.667654-40.929682-182.667653-75.795707v50.783123a1121.018505 1121.018505 0 0 0-131.126573-7.57957C151.931482 325.92154 0.340068 367.609178 0.340068 419.150259v145.527757a25.77054 25.77054 0 0 0 0 8.337528c16.675056 45.477424 159.170984 81.101406 333.50111 81.101406a1165.737972 1165.737972 0 0 0 151.591414-9.853441l28.044412-4.547743c85.649149-14.401184 144.7698-39.413768 151.591414-67.458179a25.77054 25.77054 0 0 0 0-8.337528v32.592154c0 29.560326-48.509252 51.541081-123.547003 67.458179l-58.362694 9.853442a1114.954848 1114.954848 0 0 1-151.591414 10.611399 1093.73205 1093.73205 0 0 1-151.591413-10.611399C76.135775 659.42265 0.340068 634.410067 0.340068 598.028127v146.285715a25.77054 25.77054 0 0 0 0 8.337527c16.675056 45.477424 159.170984 81.101406 333.50111 81.101407a1087.668394 1087.668394 0 0 0 179.635826-13.643228c84.891192-14.401184 144.011843-38.655811 151.591414-67.458179a25.77054 25.77054 0 0 0 0-8.337527v31.834196c0 29.560326-47.751295 51.541081-122.789046 66.700223l-59.120651 10.611399a1087.668394 1087.668394 0 0 1-151.591414 10.611398 1093.73205 1093.73205 0 0 1-151.591413-10.611398C76.135775 838.300518 0.340068 812.529978 0.340068 776.148038v156.897114a25.77054 25.77054 0 0 0 0 8.337527c16.675056 45.477424 159.170984 81.101406 333.50111 81.101407s318.341969-37.139896 335.017025-80.343449a25.77054 25.77054 0 0 0 0-8.337528v-65.942265a1168.011843 1168.011843 0 0 0 131.126573 6.821613c174.330126 0 316.826055-35.623982 333.50111-81.101406a25.77054 25.77054 0 0 0 0-8.337528v-151.591413c0 36.381939-75.795707 62.15248-182.667653 75.795706a1086.910437 1086.910437 0 0 1-151.591414 10.611399 1115.712805 1115.712805 0 0 1-131.126573-7.57957v-22.738712a1168.011843 1168.011843 0 0 0 131.126573 6.821613c174.330126 0 316.826055-35.623982 333.50111-81.101406a25.77054 25.77054 0 0 0 4.547742-9.095485v-151.591414c0 36.381939-75.795707 62.15248-182.667653 75.795707a1088.426351 1088.426351 0 0 1-151.591414 10.611399 1117.228719 1117.228719 0 0 1-131.126573-7.579571v-21.980755a1165.737972 1165.737972 0 0 0 131.126573 6.821614c174.330126 0 316.826055-35.623982 333.50111-81.101406a25.77054 25.77054 0 0 0 0-8.337528V281.202073c0.757957 36.381939-75.03775 62.15248-181.909696 77.311621z m-344.112509 75.795706a258.46336 258.46336 0 0 1-60.636566 22.738713 606.365655 606.365655 0 0 1-75.795707 14.401184h-7.57957a1061.139896 1061.139896 0 0 1-131.126573 7.579571 887.567728 887.567728 0 0 1-214.501851-24.254627 262.253146 262.253146 0 0 1-60.636565-22.738712 38.655811 38.655811 0 0 1-15.159142-12.127313 39.413768 39.413768 0 0 1 15.159142-12.127313 262.253146 262.253146 0 0 1 60.636565-22.738712 891.357513 891.357513 0 0 1 214.501851-23.496669 1045.980755 1045.980755 0 0 1 131.126573 7.579571 661.696521 661.696521 0 0 1 83.375277 15.159141 261.495189 261.495189 0 0 1 60.636566 22.738712 38.655811 38.655811 0 0 1 15.159141 12.127313 38.655811 38.655811 0 0 1-15.159141 12.88527z" p-id="4096" fill="#cdcdcd"></path></svg>