<?xml version="1.0" standalone="no"?><!DOCTYPE svg PUBLIC "-//W3C//DTD SVG 1.1//EN" "http://www.w3.org/Graphics/SVG/1.1/DTD/svg11.dtd"><svg t="1545989672249" class="icon" style="" viewBox="0 0 1024 1024" version="1.1" xmlns="http://www.w3.org/2000/svg" p-id="5004" xmlns:xlink="http://www.w3.org/1999/xlink" width="300" height="300"><defs><style type="text/css"></style></defs><path d="M511.998 7.374C232.957 7.374 6.752 233.558 6.752 512.622c0 279.018 226.206 505.246 505.246 505.246 279.042 0 505.248-226.228 505.248-505.246C1017.246 233.558 791.04 7.374 511.998 7.374L511.998 7.374zM710.011 813.682c-19 19.167-50.202 19.167-69.196 0L468.043 639.966c-12.901-12.982-11.735-31.06-11.735-58.555 0-27.541-6.235-345.856-6.235-345.856 0-27.304 21.848-49.42 48.789-49.42 26.947 0 48.789 22.116 48.789 49.42l0 345.856c0 1.426 162.743 162.774 162.743 162.774C729.382 763.359 729.007 794.465 710.011 813.682L710.011 813.682z" p-id="5005" fill="#bfcbd9"></path></svg>