<?xml version="1.0" standalone="no"?><!DOCTYPE svg PUBLIC "-//W3C//DTD SVG 1.1//EN" "http://www.w3.org/Graphics/SVG/1.1/DTD/svg11.dtd"><svg t="1547805789150" class="icon" style="" viewBox="0 0 1024 1024" version="1.1" xmlns="http://www.w3.org/2000/svg" p-id="1193" xmlns:xlink="http://www.w3.org/1999/xlink" width="300" height="300"><defs><style type="text/css"></style></defs><path d="M934.784072 770.687714c-4.919033 103.121636-90.146113 185.509041-194.157002 185.509041l-3.523243 0L284.933471 956.196755l-3.51915 0c-104.013959 0-189.285041-82.387405-194.19998-185.509041l-0.213871 0 0-9.457396L87.00047 262.372639l0-1.654686 0-9.411347 0.213871 0c4.91494-103.161544 90.186022-185.549973 194.19998-185.549973l359.013677 0 0 0.044002 27.604708 0-83.829244 70.850651L563.088562 136.651286l-41.425482 0-90.403986 0L281.414321 136.651286c-68.183915 0-123.728976 55.67809-123.728976 124.06769l0 23.833825 0 1.824555 0 124.658138L157.685345 733.079164l0 0.252757 0 27.898397c0 68.394716 55.54506 124.068713 123.728976 124.068713l149.844773 0 0 0 159.51911 0 0 0 149.848866 0c68.180845 0 123.724883-55.672974 123.724883-124.068713l0-25.65224 0-0.765433L864.351953 610.914824 864.351953 410.949536l70.685899-69.666686L935.037852 761.230318l0 9.457396L934.784072 770.687714 934.784072 770.687714zM690.674379 459.501322l-51.260477 54.102199c-17.004279 17.388019-60.044538 61.019749-73.65144 75.43711-13.657045 14.500249-24.976858 26.412556-33.9226 35.783994-8.948813 9.372461-14.332427 14.754029-15.986089 16.072047-4.327562 3.985778-9.203616 8.184403-14.759145 12.676717-5.510504 4.453429-11.275811 8.015557-17.253966 10.68434-5.978155 3.140527-14.71412 6.872524-26.248827 11.449773-11.533684 4.452405-23.574928 8.775874-36.211736 13.020548-12.592806 4.238534-24.550139 7.885598-35.830043 11.022031-11.320836 3.051499-19.759019 5.132904-25.314549 6.062066-11.489682 1.316995-19.162432-0.506537-23.023366-5.381567-3.855818-4.879124-4.91494-13.18837-3.220345-24.678052 0.890276-6.27696 2.883677-15.309684 6.108115-27.098171 3.176342-11.827373 6.613628-24.081465 10.216689-36.759205 3.647063-12.681834 7.166213-24.424272 10.556427-35.108612 3.437286-10.68434 6.191003-18.063401 8.353248-22.049179 2.543939-6.192026 5.430686-11.916401 8.651031-17.045211 3.180436-5.132904 7.757684-10.813277 13.740956-17.045211 2.539846-2.673899 8.522094-9.03477 17.934464-19.038612 9.367345-10.05296 48.720631-50.076512 62.794162-64.790632l46.728254-48.805566 51.901067-54.102199L703.608969 195.334827l120.758318 122.501008L690.674379 459.501322 690.674379 459.501322zM907.223367 231.248781c-6.360871 6.659677-12.085246 12.468986-17.130146 17.472953-5.048993 5.004991-9.457396 9.457396-13.18837 13.314237-4.239558 4.452405-8.185426 8.353248-11.916401 11.658528L744.822626 151.240563c6.404873-6.108115 13.953803-13.44215 22.729677-22.050202 8.775874-8.606005 16.110933-15.394618 21.920242-20.398586 7.502881-6.101975 15.181771-10.386558 23.192212-12.885472 7.29515-2.291183 14.46034-3.394307 21.542642-3.349281l1.948375 0c3.89982 0.168846 7.761778 0.546446 11.492752 1.182942-0.083911-0.040932-0.257873 0-0.341784-0.040932 0.083911 0 0.25685 0 0.341784 0.040932 16.155958 3.010567 33.072233 11.70253 47.448662 25.612331 7.971555 7.761778 14.45727 16.408715 19.162432 25.313525 6.957459 13.144368 10.261715 26.885324 9.626241 39.433104 0 1.52575 0.128937 3.096525 0.128937 4.666276 0 7.250124-1.356904 14.456247-4.02978 21.666462C917.316236 217.637786 913.031653 224.595244 907.223367 231.248781L907.223367 231.248781zM907.223367 231.248781" p-id="1194" fill="#cdcdcd"></path></svg>