<?xml version="1.0" standalone="no"?><!DOCTYPE svg PUBLIC "-//W3C//DTD SVG 1.1//EN" "http://www.w3.org/Graphics/SVG/1.1/DTD/svg11.dtd"><svg t="1545899599277" class="icon" style="" viewBox="0 0 1024 1024" version="1.1" xmlns="http://www.w3.org/2000/svg" p-id="3848" xmlns:xlink="http://www.w3.org/1999/xlink" width="400" height="400"><defs><style type="text/css"></style></defs><path d="M512 46.334842c255.490317 0 463.348416 207.8581 463.348416 463.348416s-207.8581 463.348416-463.348416 463.348416-463.348416-207.8581-463.348416-463.348416S256.509683 46.334842 512 46.334842M512 0c-281.484163 0-509.683258 228.199095-509.683258 509.683258s228.199095 509.683258 509.683258 509.683258 509.683258-228.199095 509.683258-509.683258S793.484163 0 512 0L512 0z" p-id="3849" fill="#bfcbd9"></path><path d="M580.876742 777.892489c-5.259005 0-10.564344-1.783891-14.919819-5.444344L272.70371 525.437104c-9.776652-8.224434-11.05086-22.843077-2.78009-32.642896 8.201267-9.776652 22.81991-11.097195 32.642896-2.803258l293.253213 247.011041c9.776652 8.224434 11.05086 22.843077 2.78009 32.642896C594.035837 775.089231 587.479457 777.892489 580.876742 777.892489z" p-id="3850" fill="#bfcbd9"></path><path d="M287.600362 530.881448c-6.602715 0-13.159095-2.803258-17.746244-8.247602-8.247602-9.776652-6.996561-24.395294 2.803258-32.642896l293.345882-246.941538c9.799819-8.247602 24.418462-6.973394 32.619729 2.803258 8.247602 9.776652 6.996561 24.395294-2.803258 32.642896L302.497014 525.437104C298.164706 529.097557 292.859367 530.881448 287.600362 530.881448z" p-id="3851" fill="#bfcbd9"></path></svg>