<?xml version="1.0" standalone="no"?><!DOCTYPE svg PUBLIC "-//W3C//DTD SVG 1.1//EN" "http://www.w3.org/Graphics/SVG/1.1/DTD/svg11.dtd"><svg t="1548231195824" class="icon" style="" viewBox="0 0 1024 1024" version="1.1" xmlns="http://www.w3.org/2000/svg" p-id="9115" xmlns:xlink="http://www.w3.org/1999/xlink" width="300" height="300"><defs><style type="text/css"></style></defs><path d="M890.432183 74.964766c-3.020752 2.837676-5.989139 5.659563-8.928147 8.454068-62.608551 59.484869-103.970708 98.789221-333.682163 21.516212-61.817887-20.793102-124.650887-30.07341-186.752981-27.584897-49.741275 1.99185-99.061636 11.5042-146.579019 28.268434-81.188754 28.636385-129.228383 68.639063-131.232025 70.325919-1.777395 1.496985-3.311755 3.161257-4.625864 4.95544-11.752032 7.313042-16.63652 22.34525-10.868631 35.361225l326.330948 730.263681c6.305725 14.256334 22.969826 20.691971 37.220165 14.384048 14.250338-6.305725 20.691771-22.969826 14.384048-37.220165l-135.539504-299.197944c0.909783-1.734024 1.830559-3.490833 2.768923-5.278022 37.386452-71.424574 79.767518-152.37529 297.500695-133.062584 39.697885 3.522212 78.527159-2.99397 115.527073-19.371866 2.293845-1.012114 4.588489-2.068597 6.867544-3.161257 33.563244-16.059112 65.531969-40.344047 95.017978-72.167271 46.148311-49.800235 86.816938-119.70524 111.57795-191.785969 9.430806-27.450189 15.694159-52.876949 18.117916-73.535343 2.288848-19.523363 2.989173-46.990141-17.260098-60.062078C934.658398 62.437659 914.457494 52.354895 890.432183 74.964766z" p-id="9116" fill="#cdcdcd"></path></svg>