<?xml version="1.0" standalone="no"?><!DOCTYPE svg PUBLIC "-//W3C//DTD SVG 1.1//EN" "http://www.w3.org/Graphics/SVG/1.1/DTD/svg11.dtd"><svg t="1546943970774" class="icon" style="" viewBox="0 0 1024 1024" version="1.1" xmlns="http://www.w3.org/2000/svg" p-id="3062" xmlns:xlink="http://www.w3.org/1999/xlink" width="200" height="200"><defs><style type="text/css"></style></defs><path d="M845.440743 400.759453l-222.590588-0.054235c80.537268-266.391163-49.724495-278.293237-73.690326-278.293237l0 55.647391c4.456498 0 19.726274 1.032516 29.889751 14.727423 10.32516 13.966083 30.214139 60.647265-9.456373 191.83205-5.107321 16.84669-1.901303 35.105542 8.587586 49.28959 10.487865 14.129812 27.062356 22.445198 44.669362 22.445198l219.87371 0c0.216941 0 27.171849 2.771113 43.420929 21.465894 12.498662 14.399965 17.389042 37.116339 14.83487 65.212234-3.206018 19.944238-45.811372 204.059536-78.472236 282.096866-2.716878 6.303566-11.410887 20.814048-32.715099 20.814048L243.314073 845.942675l-4.673439 0-5.325285 0L122.509706 845.942675l0.379647-332.039325c0.272199-0.706081 0.543376-1.467421 0-1.738597l0-0.162706 110.425995 0 0 333.886393 55.648414 0L288.963763 507.435031c80.69895-24.345478 218.188324-150.096507 222.536352-270.63072l-0.054235 0c0.107447-1.086751 0.107447-2.065032 0.107447-3.097548 0-16.683984 3.314489-55.538921 33.911344-55.538921 0.434905 0 0.760317 0 1.086751 0 0.76134 0 1.196245 0 2.337231-0.10847l0.271176-55.647391c-2.390443 0-3.694135 0.10847-3.694135 0.10847-59.72322 0-89.558735 51.136657-89.558735 111.186312-0.054235-0.543376-0.10847-0.76134-0.10847-0.76134-0.054235 0 0 1.792832 0.055259 1.792832-3.804652 106.187461-148.792814 221.61333-191.995779 221.61333 0 0 0 0-0.10847 0l-30.432103 0L122.182248 456.351586c-34.779108 0.705058-54.940286 33.963533-54.940286 54.831816l-0.38067 349.048721c0 21.139459 19.509333 41.354873 55.158251 41.354873l111.295805 0 5.325285 0 4.673439 0 546.477232 0c63.473637 0 84.34192-55.647391 84.34192-55.647391 36.138058-86.351694 80.97115-284.216133 82.003666-295.465339C969.452151 406.900314 845.440743 400.759453 845.440743 400.759453z" p-id="3063"></path></svg>