<?xml version="1.0" standalone="no"?><!DOCTYPE svg PUBLIC "-//W3C//DTD SVG 1.1//EN" "http://www.w3.org/Graphics/SVG/1.1/DTD/svg11.dtd"><svg t="1545989279768" class="icon" style="" viewBox="0 0 1095 1024" version="1.1" xmlns="http://www.w3.org/2000/svg" p-id="4080" xmlns:xlink="http://www.w3.org/1999/xlink" width="427.734375" height="400"><defs><style type="text/css"></style></defs><path d="M184.501 3.426l397.895 0c0.119 44.034-0.19 88.068 0.161 132.103 1.72 46.366 24.058 96.021 68.172 116.078 14.805 6.622 31.259 7.853 47.274 7.662 47.076 0.02 94.141-0.08 141.215 0.05 0.08 84.527 0.07 169.065 0 253.601-46.086-4.691-93.539-0.631-137.085 15.806-58.018 21.517-108.704 62.18-142.225 114.217-99.692 0.19-199.383-0.05-299.074 0.119-20.076-0.15-39.203 10.573-50.917 26.628-13.004 17.095-15.595 40.964-8.073 60.891 9.352 23.508 33.561 40.532 59.049 40.252 84.646 0.13 169.294 0.02 253.94 0.05-5.952 67.723 10.683 137.624 50.095 193.403-120.358 0.02-240.717 0.02-361.085 0-16.235 0.2-32-4.961-46.354-12.214-28.7-14.626-53.597-36.991-70.603-64.4-10.943-16.877-17.336-36.782-17.106-56.978-0.039-229.402 0.011-458.806-0.02-688.219-1.42-38.902 18.176-75.955 45.304-102.783 18.975-18.356 42.513-33.8 69.432-36.26M251.232 388.037c-21.638 3.211-40.763 18.695-49.126 38.802-8.152 20.737-5.091 45.895 9.163 63.29 11.943 15.435 30.97 25.239 50.617 24.929 128.35 0.039 256.712 0.08 385.073-0.02 30.54 0.311 58.679-24.597 62.678-54.737 6.972-36.633-24.708-73.374-61.67-73.052-126.701-0.18-253.401-0.02-380.101-0.08-5.563-0.011-11.144-0.011-16.635 0.871L251.232 388.037zM646.938 3.426l10.173 0c26.859 4.801 46.915 25.079 67.431 41.474 35.612 30.88 72.923 60.81 101.563 98.581 11.303 14.205 14.855 32.46 13.114 50.227-50.396 0.11-100.792 0.08-151.179 0.011-8.471 0.19-16.185-4.551-21.176-11.153-12.415-14.715-18.875-34.021-19.877-53.086-0.119-42.023-0.02-84.036-0.05-126.05L646.938 3.426z" p-id="4081" fill="#bfcbd9"></path><path d="M1008.26112 959.00672l-77.86496-77.85984c17.64352-26.64448 28.04224-58.5216 28.04224-92.87168 0-93.11744-75.48416-168.6016-168.59648-168.6016-93.11744 0-168.59648 75.48416-168.59648 168.6016 0 93.11232 75.48416 168.59648 168.59648 168.59648 34.35008 0 66.2272-10.39872 92.86656-28.04224l77.86496 77.86496c9.69216 9.68704 25.5488 9.68704 35.23584 0l12.45696-12.45184C1017.94816 984.5504 1017.94816 968.69888 1008.26112 959.00672zM880.88576 831.63136c-9.97376 20.89472-26.78784 37.7088-47.68768 47.68768-13.184 6.2976-27.776 10.11712-43.36128 10.11712-55.86944 0-101.16096-45.29664-101.16096-101.16096 0-55.86944 45.29152-101.16096 101.16096-101.16096 55.86944 0 101.16096 45.29152 101.16096 101.16096C890.99776 803.86048 887.18336 818.44224 880.88576 831.63136z" p-id="4082" fill="#bfcbd9"></path></svg>