<?xml version="1.0" standalone="no"?><!DOCTYPE svg PUBLIC "-//W3C//DTD SVG 1.1//EN" "http://www.w3.org/Graphics/SVG/1.1/DTD/svg11.dtd"><svg t="1546415568866" class="icon" style="" viewBox="0 0 1024 1024" version="1.1" xmlns="http://www.w3.org/2000/svg" p-id="4476" xmlns:xlink="http://www.w3.org/1999/xlink" width="300" height="300"><defs><style type="text/css"></style></defs><path d="M976.3 510.4c0-32.3-3.2-63.9-9.4-94.3h-0.2c-1.9-18.3-15.8-33-33.7-36l0.1-0.4c-61.4-16.3-106.6-72.2-106.6-138.7 0-12.8 1.7-25.2 4.8-37 1.7-4.5 2.6-9.4 2.6-14.5 0-14.4-7.4-27-18.6-34.3l0.4-0.5c-48.7-43-106.3-76.1-169.6-96.3l-0.1 0.3c-16.4-6.2-35-1.1-46 12.4l-0.4-0.3c-44.4 45.4-115.3 57.3-173.2 24.6-11.1-6.3-21.1-13.9-29.8-22.4-3.1-3.7-6.9-6.9-11.3-9.4-12.1-6.9-26.3-6.8-38-1.2l-0.2-0.5C284 83.6 226.8 118.4 178.9 163c-1.7 1.3-3.2 2.8-4.6 4.4-0.5 0.5-1 1-1.5 1.4l0.1 0.2c-9.2 11.3-11.9 26.9-6.4 40.8l-0.4 0.2c17.9 60.9-6.5 128.6-63.4 163-10.9 6.6-22.4 11.6-34.2 15-4.7 0.9-9.4 2.6-13.7 5.2-11.9 7.2-18.8 19.5-19.6 32.4-5 27.5-7.6 55.8-7.6 84.7 0 31.7 3.1 62.8 9.1 92.8 0.2 4.7 1.2 9.2 2.9 13.4l0.9 3.9 0.8-0.2c5.8 11.1 16.5 19.3 29.3 21.5l-0.1 0.4c61.4 16.3 106.6 72.2 106.6 138.7 0 12.8-1.7 25.2-4.8 37-1.7 4.5-2.6 9.4-2.6 14.5 0 15.1 8.2 28.2 20.3 35.3 46.1 40.3 100 71.8 159.1 91.9l0.3-0.6 2.4 1.5c17.6 9.9 39.4 5.4 51.8-9.7l0.4 0.3c44.4-45.4 115.3-57.3 173.2-24.6 11.1 6.3 21.1 13.9 29.8 22.4 3.1 3.7 6.9 6.9 11.3 9.4 12.8 7.3 27.9 6.8 39.9 0.2 60.9-21.2 116.2-54.5 162.9-97.1 16.6-10.7 23.1-31.5 16-49.4l0.4-0.2c-17.9-60.9 6.5-128.6 63.4-163 10.9-6.6 22.4-11.6 34.2-15 4.7-0.9 9.4-2.6 13.7-5.2 11.6-7 18.4-18.8 19.6-31.4 5.2-28.1 7.9-57.1 7.9-86.7z" fill="#bfcbd9" p-id="4477" data-spm-anchor-id="a313x.7781069.0.i19" class=""></path><path d="M671 558.8c0-22.6-18.3-40.9-40.9-40.9-17.8 0-32.9 11.4-38.6 27.2l-0.2-0.1c-13.3 34.7-46.9 59.3-86.2 59.3-51 0-92.3-41.3-92.3-92.3s41.3-92.3 92.3-92.3c19.2 0 37 5.9 51.8 15.9 7.4 7.4 17.7 12 29 12 22.6 0 40.9-18.3 40.9-40.9 0-12-5.1-22.7-13.3-30.2l0.5-0.5c-29.8-23.9-67.6-38.2-108.8-38.2-96.2 0-174.2 78-174.2 174.2 0 96.2 78 174.2 174.2 174.2 73.6 0 136.5-45.7 162-110.2 2.4-5.3 3.8-11.1 3.8-17.2z" fill="#FFFFFF" p-id="4478"></path></svg>