<?xml version="1.0" standalone="no"?><!DOCTYPE svg PUBLIC "-//W3C//DTD SVG 1.1//EN" "http://www.w3.org/Graphics/SVG/1.1/DTD/svg11.dtd"><svg t="1546934303790" class="icon" style="" viewBox="0 0 1024 1024" version="1.1" xmlns="http://www.w3.org/2000/svg" p-id="1774" xmlns:xlink="http://www.w3.org/1999/xlink" width="200" height="200"><defs><style type="text/css"></style></defs><path d="M157.967462 445.470904h200.646409v71.88507H157.967462z" fill="#8a8a8a" p-id="1775"></path><path d="M141.79107 258.925627H374.785146c26.608978 0 50.408986 15.333189 62.128888 38.289994 144.572411-17.907823 437.485038-60.32378 477.863597-187.234984 9.030659-28.381341 51.013759-21.634696 51.013759 7.867162l0.121773-0.008186v219.065883c15.328073 0 46.030267-3.651149 46.030267 26.129049l0.004094 136.097405h-0.081865c0 29.383155-30.624423 26.137235-45.956589 26.137235l0.004093 219.024951c0 29.377016-42.746484 37.729224-51.821146 5.942327C879.581085 629.298285 567.677979 590.768837 431.254139 574.232242c-13.204717 18.140113-32.990303 28.500044-56.629652 28.980997-2.409881 0.113587 3.531423 3.284806 3.210105 7.662501-3.131311 43.228461 42.786393 267.873398 42.786394 295.009378 0 14.486917-11.762881 26.248775-26.252868 26.248775l-131.03819-0.004093v-0.042979c-12.527289 0-23.642419-9.026566-25.810801-21.789215l-42.499868-244.877708c-14.008011-80.672183-65.989815-46.235952-102.472655-82.757676-17.136251-17.148531-20.46813-34.23771-20.468129-57.27638-72.887908-0.004093-58.961762 7.5878-58.961762-162.352321 0-31.953695 36.761178-26.244682 58.961762-26.244681 0-45.397865 27.413295-77.863213 69.712595-77.863213zM358.331439 846.241836h-55.751657c-7.744366-48.649926-28.737451-205.742463-44.071664-243.028597l-30.658192-0.004093c8.787113 14.240301 15.043594 31.713219 18.821633 53.42364l38.733086 222.995371h78.304257l-5.377463-33.386321z m86.171419-497.135484l-0.004093 0.00614c0 57.995763 0.004093 115.9465 0 173.90747 155.249566 19.064156 371.186185 50.126554 468.915825 137.305928l-0.004093-457.389327c-98.77341 90.94718-311.655466 126.662541-468.907639 146.169789zM72.078475 472.888292v-83.605996h-6.463189v83.605996h6.463189zM374.785146 311.420106l-232.994076 0.002047a17.159787 17.159787 0 0 0-17.214022 17.219139v204.852188c0 9.551521 7.666595 17.257001 17.214022 17.257002l232.994076 0.004093c9.551521 0 17.214022-7.709573 17.214023-17.261095V328.639245a17.157741 17.157741 0 0 0-17.214023-17.219139z" fill="#8a8a8a" p-id="1776"></path><path d="M880.024176 445.470904H477.897366v47.971475c127.710405 16.12932 295.440189 42.821186 402.122716 102.786809l0.004094-150.758284z" fill="#8a8a8a" p-id="1777"></path></svg>