<?xml version="1.0" standalone="no"?><!DOCTYPE svg PUBLIC "-//W3C//DTD SVG 1.1//EN" "http://www.w3.org/Graphics/SVG/1.1/DTD/svg11.dtd"><svg t="1545724252223" class="icon" style="" viewBox="0 0 1024 1024" version="1.1" xmlns="http://www.w3.org/2000/svg" p-id="2032" xmlns:xlink="http://www.w3.org/1999/xlink" width="360" height="360"><defs><style type="text/css"></style></defs><path d="M908.8 305.6c-5.4-10.5-16.3-17.8-28.9-17.8-17.8 0-32.2 14.4-32.2 32.1 0 6 1.7 11.7 4.6 16.5l-0.1 0.1c26.9 52.4 42.1 111.8 42.1 174.7 0 211.6-171.6 383.2-383.2 383.2S127.8 722.8 127.8 511.2 299.4 128.1 511 128.1c62.5 0 121.5 15 173.6 41.5l0.2-0.4c4.6 2.6 10 4.1 15.7 4.1 17.8 0 32.2-14.4 32.2-32.1 0-13.1-7.9-24.4-19.3-29.4C652.6 80.9 583.9 63.5 511 63.5 263.7 63.5 63.2 264 63.2 511.2S263.7 958.9 511 958.9s447.7-200.4 447.7-447.7c0-74.1-18-144-49.9-205.6z" fill="#bfcbd9" p-id="2033"></path><path d="M770.7 219.7a32.2 32.1 0 1 0 64.4 0 32.2 32.1 0 1 0-64.4 0Z" fill="#bfcbd9" p-id="2034"></path><path d="M512.4 704.1c17.5 0 31.9-14.3 31.9-31.9V544.3h127.8c17.5 0 31.9-14.3 31.9-31.9 0-17.5-14.3-31.9-31.9-31.9H544.3V352.6c0-17.5-14.3-31.9-31.9-31.9-17.5 0-31.9 14.3-31.9 31.9v127.9h-128c-17.5 0-31.9 14.3-31.9 31.9 0 17.6 14.4 31.9 31.9 31.9h128v127.9c0 17.5 14.3 31.9 31.9 31.9z" fill="#bfcbd9" p-id="2035"></path></svg>