<?xml version="1.0" standalone="no"?><!DOCTYPE svg PUBLIC "-//W3C//DTD SVG 1.1//EN" "http://www.w3.org/Graphics/SVG/1.1/DTD/svg11.dtd"><svg t="1546567894655" class="icon" style="" viewBox="0 0 1024 1024" version="1.1" xmlns="http://www.w3.org/2000/svg" p-id="1967" xmlns:xlink="http://www.w3.org/1999/xlink" width="200" height="200"><defs><style type="text/css"></style></defs><path d="M896 960 128 960c-70.592 0-128-57.408-128-128L0 192c0-70.592 57.408-128 128-128l640 0c70.592 0 128 57.408 128 128l0 576-64 0L832 192c0-35.264-28.672-64-64-64L128 128C92.736 128 64 156.736 64 192l0 640c0 35.328 28.736 64 64 64l768 0c35.328 0 64-28.672 64-64L960 192l64 0 0 640C1024 902.592 966.592 960 896 960z" p-id="1968"></path><path d="M192 320l512 0 0 64-512 0 0-64Z" p-id="1969"></path><path d="M192 512l512 0 0 64-512 0 0-64Z" p-id="1970"></path><path d="M192 704l512 0 0 64-512 0 0-64Z" p-id="1971"></path></svg>