<?xml version="1.0" standalone="no"?><!DOCTYPE svg PUBLIC "-//W3C//DTD SVG 1.1//EN" "http://www.w3.org/Graphics/SVG/1.1/DTD/svg11.dtd"><svg t="1546425847593" class="icon" style="" viewBox="0 0 1024 1024" version="1.1" xmlns="http://www.w3.org/2000/svg" p-id="2675" xmlns:xlink="http://www.w3.org/1999/xlink" width="300" height="300"><defs><style type="text/css"></style></defs><path d="M42.666667 447.573333h938.410666v-111.146666H42.666667v-109.013334c0-43.093333 35.797333-78.314667 79.573333-78.314666h779.392c43.776 0 79.701333 35.242667 79.701333 78.293333v547.392c0 43.093333-35.797333 78.293333-79.573333 78.293333H122.24c-43.776 0-79.573333-35.2-79.573333-78.293333V447.552z m284.010666 211.370667a29.226667 29.226667 0 0 0 0-41.322667L220.970667 512l-105.706667 105.6a29.226667 29.226667 0 0 0 20.565333 49.92c7.552 0 14.762667-2.837333 20.48-8.576l34.645334-35.072v136.234667c0 16.106667 13.888 29.226667 30.016 29.226666 16.106667 0 29.994667-13.12 29.994666-29.226666v-136.234667l34.645334 35.072a28.885333 28.885333 0 0 0 41.066666 0z" p-id="2676" fill="#bfcbd9"></path></svg>