<?xml version="1.0" standalone="no"?><!DOCTYPE svg PUBLIC "-//W3C//DTD SVG 1.1//EN" "http://www.w3.org/Graphics/SVG/1.1/DTD/svg11.dtd"><svg t="1546597273484" class="icon" style="" viewBox="0 0 1024 1024" version="1.1" xmlns="http://www.w3.org/2000/svg" p-id="2587" xmlns:xlink="http://www.w3.org/1999/xlink" width="300" height="300"><defs><style type="text/css"></style></defs><path d="M891.521 322.239c-54.218 0-94.887 45.187-94.887 94.887 0 13.557 4.517 22.586 9.041 36.144l-153.621 58.732-99.402-203.313c31.631-13.557 54.218-49.696 54.218-85.849 0-54.218-40.657-94.887-94.887-94.887-54.218 0-94.887 45.187-94.887 94.887 0 36.144 22.586 72.291 54.218 85.849l-103.919 203.313-149.095-58.732c4.517-9.041 9.041-22.586 9.041-36.144 0-54.218-40.657-94.887-94.887-94.887-54.218 0-94.887 45.187-94.887 94.887 0 54.218 40.657 94.887 94.887 94.887 4.517 0 9.041 0 18.071 0l49.696 302.719c4.517 49.696 45.187 81.329 90.356 81.329l442.779 0c45.187 0 85.849-31.631 94.887-81.329l45.187-302.719c4.517 0 9.041 0 18.071 0 54.218 0 94.887-45.187 94.887-94.887 0-54.218-40.657-94.887-94.887-94.887z" p-id="2588" fill="#bfcbd9"></path></svg>