<?xml version="1.0" standalone="no"?><!DOCTYPE svg PUBLIC "-//W3C//DTD SVG 1.1//EN" "http://www.w3.org/Graphics/SVG/1.1/DTD/svg11.dtd"><svg t="1545989746831" class="icon" style="" viewBox="0 0 1024 1024" version="1.1" xmlns="http://www.w3.org/2000/svg" p-id="2017" xmlns:xlink="http://www.w3.org/1999/xlink" width="300" height="300"><defs><style type="text/css"></style></defs><path d="M511.082 36.049c-263.069 0-476.33 212.903-476.33 475.534s213.261 475.534 476.33 475.534c263.073 0 476.33-212.903 476.33-475.534 0-262.63-213.255-475.534-476.33-475.534zM772.988 397.6l-306.63 313.276c-14.106 14.413-36.99 14.413-51.094 0l-166.087-169.696c-14.115-14.414-14.115-37.788 0-52.206 14.105-14.419 36.99-14.419 51.094 0l140.541 143.585 281.072-287.169c14.115-14.418 37.001-14.418 51.105 0 14.115 14.417 14.115 37.792 0 52.21z" p-id="2018" fill="#bfcbd9"></path></svg>